P2
# CREATOR: Image Processing using C-Ansi - ByDu
100  30
255
 67  65  66  68  67  68  69  69  70  70  69  69  70  69  69  68  66 
 69  66  66  66  66  65  65  66  65  65  64  65  65  65  66  66  66 
 67  67  69  66  68  68  69  69  69  70  69  70  71  71  72  70  71 
 72  73  72  73  73  74  75  74  74  72  70  69  69  65  62  59  59 
 57  56  54  54  52  52  51  50  50  51  51  50  47  45  44  43  43 
 42  42  41  40  38  36  37  37  42  50  64  76  85  93  97  66  68 
 67  68  67  68  69  69  69  68  70  70  70  70  69  69  67  66  68 
 66  66  66  66  65  65  65  65  64  66  66  66  66  65  67  67  68 
 67  68  67  69  69  69  69  69  70  69  70  70  71  70  71  71  72 
 73  73  75  75  73  73  73  71  70  68  67  65  63  58  58  57  56 
 55  53  53  53  52  50  49  50  49  50  47  45  44  43  42  42  41 
 40  40  37  37  36  36  40  46  61  74  82  91  95  65  67  68  69 
 68  67  70  68  68  68  68  69  69  68  69  68  68  66  67  67  66 
 66  65  65  65  64  65  64  67  65  66  66  66  67  66  68  68  68 
 70  68  68  71  71  69  71  71  71  72  71  72  71  72  71  72  73 
 73  75  73  74  74  71  70  68  66  64  62  60  58  57  56  54  53 
 53  51  50  51  50  50  50  49  48  45  44  44  42  41  42  39  40 
 39  36  36  36  39  44  56  70  80  89  94  67  66  66  67  67  69 
 69  68  69  69  69  69  70  68  69  68  68  68  65  68  66  65  66 
 64  65  64  65  65  64  64  66  66  67  67  67  67  66  67  67  70 
 68  69  68  70  69  69  72  72  71  72  71  71  71  72  73  75  74 
 74  74  72  72  70  68  66  64  62  60  56  56  54  54  53  52  50 
 51  49  50  51  50  48  47  45  44  43  42  41  42  40  40  38  35 
 36  35  38  42  54  67  79  86  92  66  67  68  67  67  69  68  69 
 70  70  68  69  71  70  69  68  68  68  66  67  67  65  65  66  64 
 65  64  65  66  65  67  67  66  67  67  67  67  68  67  68  68  69 
 70  70  69  70  71  70  71  70  72  71  71  72  73  73  74  74  74 
 72  70  70  68  66  64  62  59  57  56  55  55  53  52  52  52  50 
 50  51  50  50  47  45  43  44  42  42  40  42  40  37  35  35  35 
 37  41  49  63  77  84  90  65  67  66  68  68  67  68  69  68  70 
 70  69  70  70  69  67  68  67  67  68  66  65  64  66  64  64  65 
 67  65  65  67  66  66  67  66  68  66  68  67  69  68  69  68  69 
 71  70  71  70  71  71  71  72  72  71  74  74  74  74  74  74  73 
 70  69  67  64  61  59  59  56  55  55  54  53  53  52  50  50  51 
 52  50  47  46  44  42  42  42  41  42  40  38  36  35  35  37  41 
 48  59  75  82  89  67  66  67  67  67  68  68  68  68  70  69  69 
 69  71  69  67  68  67  67  65  65  66  66  65  64  64  65  63  64 
 66  66  66  65  66  66  67  67  67  68  68  68  68  68  69  70  71 
 71  70  69  70  71  72  72  73  74  73  74  74  73  72  71  70  68 
 66  64  61  58  57  56  54  56  54  53  51  53  49  49  51  51  48 
 46  46  45  43  42  42  42  41  39  38  35  34  35  37  40  47  56 
 71  79  86  67  68  67  68  67  67  67  68  69  68  68  70  70  69 
 69  66  68  67  67  66  66  65  66  67  66  65  64  64  65  67  66 
 66  67  64  67  66  67  67  68  69  69  69  68  69  71  70  72  71 
 71  71  72  71  71  72  74  72  73  72  75  73  72  68  67  65  65 
 62  59  56  56  55  55  52  52  52  52  50  51  50  51  49  47  45 
 45  43  42  41  40  41  39  39  35  33  34  36  41  46  54  67  77 
 84  66  67  66  67  66  67  67  68  69  68  69  69  69  69  69  69 
 68  67  67  66  66  67  65  65  66  65  64  64  64  67  65  66  66 
 67  66  67  68  68  68  68  66  69  69  69  70  70  71  70  71  70 
 71  72  71  73  72  73  75  74  74  72  71  69  69  66  65  62  60 
 56  57  55  56  54  53  51  51  50  51  51  50  49  48  46  43  43 
 43  44  41  42  40  38  35  34  35  38  40  47  54  64  75  81  66 
 66  68  67  65  67  69  68  69  69  69  69  69  69  69  69  67  67 
 67  67  66  65  65  66  64  67  65  65  66  66  65  65  65  66  65 
 68  68  68  67  68  68  67  70  70  72  70  72  71  70  71  72  71 
 70  71  75  73  73  74  74  72  72  69  67  66  65  62  59  57  55 
 56  55  53  53  52  53  50  49  50  51  49  47  44  44  44  43  42 
 42  40  41  37  34  36  35  37  40  46  52  60  73  77  66  67  66 
 66  66  66  67  68  69  67  69  69  69  68  69  68  65  66  68  65 
 66  66  65  65  65  65  64  64  67  67  65  66  66  66  66  66  68 
 67  67  68  67  67  68  69  70  71  70  70  71  70  71  71  71  72 
 73  73  73  74  73  72  72  69  67  65  64  62  59  56  56  55  55 
 52  53  51  50  49  50  49  50  48  46  45  44  43  40  42  42  41 
 39  38  34  33  35  38  40  44  52  60  70  75  66  66  67  67  67 
 66  69  69  68  68  68  71  69  68  69  68  68  66  67  67  66  66 
 67  66  66  66  64  64  67  67  65  66  66  67  68  66  68  67  67 
 68  67  68  70  68  69  71  69  70  71  72  71  73  71  71  74  73 
 73  75  75  73  71  69  67  66  63  62  60  56  56  56  56  53  52 
 51  51  49  50  50  50  47  47  44  43  42  41  42  44  40  42  37 
 35  35  35  37  40  44  50  57  70  75  67  66  67  65  66  66  70 
 69  68  69  68  70  69  68  70  68  67  68  66  67  66  66  66  66 
 65  64  64  64  65  66  67  65  68  66  68  68  67  67  67  67  69 
 69  68  68  67  71  70  70  70  69  71  71  72  72  73  73  73  74 
 73  72  71  69  67  64  64  60  58  56  56  56  55  54  52  52  50 
 51  50  51  50  47  47  44  44  43  41  43  42  40  40  37  36  34 
 36  39  40  43  49  57  66  72  65  67  68  65  65  66  67  68  68 
 69  69  69  70  69  69  67  68  67  66  65  66  67  65  65  65  65 
 65  64  65  66  65  65  67  66  67  67  66  67  67  68  68  68  68 
 68  71  71  69  70  71  71  70  70  72  71  73  74  72  74  74  71 
 72  70  67  67  64  60  59  57  56  55  53  53  53  52  52  51  51 
 51  50  47  46  45  44  44  43  41  42  41  39  38  34  34  35  36 
 41  42  49  56  66  69  64  66  66  67  66  66  68  67  68  68  69 
 70  69  69  68  68  68  67  65  67  66  65  67  66  66  65  64  64 
 63  66  67  65  68  68  66  66  66  67  68  69  68  68  69  68  70 
 71  69  71  70  70  71  73  72  73  74  74  73  75  73  71  72  70 
 67  66  64  60  58  57  54  56  54  52  52  51  50  50  50  49  49 
 47  46  44  45  43  42  41  41  41  39  37  34  33  34  37  40  44 
 48  55  63  68  66  66  66  66  66  65  68  69  69  67  69  68  68 
 70  68  68  67  68  68  66  67  65  65  65  66  65  64  63  64  64 
 65  66  66  66  67  67  67  68  68  68  68  68  69  68  70  70  70 
 69  70  70  70  72  73  72  74  73  73  72  74  72  71  69  66  65 
 64  61  59  57  55  56  54  54  54  50  50  50  50  50  49  46  46 
 44  44  43  42  41  41  42  39  38  35  33  35  38  40  45  48  54 
 60  67  65  65  66  65  66  66  67  67  68  68  69  68  68  69  67 
 68  68  68  66  66  67  65  67  65  65  66  65  65  65  64  64  66 
 66  67  68  68  67  68  69  68  68  67  70  70  69  72  71  71  70 
 71  72  72  72  72  73  73  73  74  74  72  71  69  67  66  64  62 
 59  58  55  55  54  53  53  50  49  48  50  50  48  46  46  44  44 
 42  42  43  42  41  40  36  35  33  35  38  41  43  47  54  59  64 
 65  66  66  66  65  66  67  66  67  69  69  69  71  68  69  68  67 
 68  66  67  67  65  65  65  65  65  65  65  65  64  65  65  66  65 
 68  67  67  69  69  69  68  69  68  69  70  70  71  70  71  71  70 
 72  72  73  74  74  74  74  74  74  70  69  68  64  65  61  59  57 
 56  58  55  53  52  50  52  50  49  50  48  47  45  46  44  42  42 
 42  42  41  40  37  36  35  36  38  40  43  46  51  58  64  66  65 
 66  66  65  66  65  68  67  68  71  67  71  68  68  67  66  67  65 
 66  67  66  66  66  64  64  64  65  65  65  66  66  66  65  68  68 
 68  69  69  67  69  68  68  69  71  69  70  69  71  71  71  70  71 
 73  73  73  74  74  73  73  70  69  67  67  64  61  60  56  56  54 
 54  54  52  51  50  51  50  50  47  46  45  44  43  43  41  42  41 
 41  40  36  33  34  36  37  41  42  46  51  58  62  66  65  66  65 
 64  67  66  66  67  67  67  69  69  68  69  68  68  67  66  66  66 
 65  65  64  65  64  64  65  66  66  66  65  66  66  68  68  67  68 
 69  68  67  68  69  68  70  69  70  69  71  70  71  70  71  72  73 
 73  75  73  73  72  71  70  67  64  65  61  58  56  56  56  56  53 
 51  49  49  50  49  49  47  45  44  44  44  43  41  42  42  41  39 
 36  34  34  36  38  42  43  44  49  55  61  64  66  66  65  64  64 
 67  67  67  69  69  68  69  69  68  68  66  67  66  68  66  67  66 
 65  66  64  65  65  65  66  65  65  66  66  68  68  67  68  69  68 
 68  69  69  69  70  70  69  70  70  70  70  71  70  72  74  73  73 
 74  73  72  71  70  69  66  63  59  59  55  57  56  55  52  51  52 
 49  50  49  46  46  45  44  45  43  42  42  41  41  39  39  36  34 
 35  37  40  42  43  44  48  54  61  64  65  66  65  64  65  67  68 
 67  66  69  70  67  69  68  68  68  68  65  66  66  64  66  66  65 
 65  65  65  65  65  65  66  66  65  68  68  67  68  68  67  68  68 
 69  67  68  69  69  71  70  70  70  71  72  73  72  73  73  74  73 
 71  71  69  66  66  62  63  58  56  57  56  55  53  52  50  49  50 
 49  47  48  45  43  43  44  42  42  41  40  41  39  36  35  34  37 
 40  42  42  44  48  54  60  65  64  65  65  63  65  67  68  67  68 
 68  68  69  67  70  68  67  67  67  64  65  64  65  64  67  64  65 
 65  64  65  66  65  66  66  67  67  67  68  67  68  67  67  69  69 
 68  69  69  69  69  70  69  70  69  72  72  73  72  73  72  72  71 
 68  67  65  62  61  58  57  56  55  53  53  51  50  50  49  47  47 
 45  45  44  44  43  42  40  42  41  40  38  36  34  35  36  38  41 
 42  44  45  52  59  63  64  65  64  64  65  67  66  68  67  67  68 
 68  68  68  68  67  66  66  66  67  65  64  65  65  65  67  65  65 
 66  66  65  67  66  66  66  68  67  68  67  68  68  69  68  69  70 
 69  70  70  71  69  70  70  71  73  73  74  74  73  72  71  68  67 
 67  64  61  57  58  57  56  54  53  53  50  50  49  47  46  45  44 
 44  45  43  42  42  42  40  41  39  36  35  35  35  37  39  42  43 
 46  52  58  63  64  65  66  64  64  67  67  67  67  67  67  68  69 
 69  68  67  67  67  66  67  66  65  65  66  65  65  63  65  65  66 
 65  65  66  65  66  68  67  68  69  69  68  69  68  70  68  69  69 
 69  70  70  70  71  72  71  72  73  74  72  72  69  69  67  66  64 
 61  58  57  56  55  54  52  51  51  50  47  48  46  46  44  42  43 
 43  41  41  42  41  41  39  36  35  35  37  37  40  41  43  46  50 
 56  64  64  65  65  64  64  66  67  66  69  67  69  68  67  67  66 
 67  67  67  66  66  64  65  64  65  64  64  65  63  65  65  66  64 
 65  65  67  68  68  67  68  67  67  69  70  70  70  70  70  70  69 
 70  70  70  71  71  72  74  73  72  71  70  68  67  65  62  60  59 
 56  55  54  55  52  51  51  49  48  46  46  45  43  43  45  42  42 
 42  41  40  40  38  36  34  35  35  38  40  42  42  46  47  53  64 
 63  64  65  65  65  67  66  67  67  66  68  68  68  68  69  67  66 
 67  67  68  66  66  66  65  64  65  67  64  66  65  66  64  66  66 
 68  69  68  67  67  68  69  69  70  69  70  70  69  71  70  69  70 
 71  71  72  71  74  73  74  72  70  70  67  65  63  61  60  58  56 
 57  53  52  51  51  50  48  48  47  46  43  43  43  42  42  41  42 
 41  41  37  37  35  36  37  37  40  41  43  45  48  55  63  63  65 
 65  64  66  65  68  67  68  68  67  68  68  67  68  67  67  67  68 
 66  65  66  67  65  64  64  64  65  66  66  65  65  66  66  68  68 
 67  67  68  69  69  69  69  68  70  70  71  70  70  69  70  70  71 
 71  72  72  74  74  72  71  70  67  67  63  61  61  58  58  56  55 
 53  52  50  49  48  48  46  44  44  44  43  43  41  41  41  41  40 
 38  36  35  36  36  39  40  42  42  44  46  52  62  63  64  64  63 
 65  65  67  67  66  67  68  68  67  67  67  68  66  67  68  65  66 
 65  65  62  66  66  65  64  67  65  66  65  65  67  68  67  68  67 
 68  69  68  68  70  69  71  70  71  70  70  70  70  70  71  72  73 
 73  73  73  71  71  69  67  65  62  60  59  59  58  55  56  52  52 
 49  50  49  47  45  45  44  43  43  45  41  42  43  43  39  38  37 
 35  36  36  38  39  40  43  43  46  51  64  63  64  64  64  66  65 
 65  67  67  68  67  68  67  68  66  68  68  66  66  66  64  65  64 
 67  64  65  65  64  66  64  65  65  66  67  68  67  69  67  67  69 
 69  68  68  70  70  69  69  70  70  69  70  70  72  72  72  73  72 
 74  71  69  67  67  67  63  61  61  60  59  57  59  55  51  50  49 
 49  47  45  44  43  42  42  44  42  41  41  41  40  38  35  36  36 
 35  38  39  40  41  43  45  49 